solid bed_0519 
facet normal 0.0 -1.0 -0.0 
 outer loop 
  vertex 30.50005 -43.0 3.0 
  vertex 28.50005 -43.0 -33.0 
  vertex 30.50005 -43.0 -33.0 
 endloop 
endfacet 
facet normal 0.0 -1.0 0.0 
 outer loop 
  vertex 28.50005 -43.0 -33.0 
  vertex 30.50005 -43.0 3.0 
  vertex 28.50005 -43.0 -9.0 
 endloop 
endfacet 
facet normal 0.0 -1.0 0.0 
 outer loop 
  vertex 28.50005 -43.0 -9.0 
  vertex 30.50005 -43.0 3.0 
  vertex -28.50005 -43.0 -9.0 
 endloop 
endfacet 
facet normal 0.0 -1.0 -0.0 
 outer loop 
  vertex -28.50005 -43.0 -9.0 
  vertex -30.50005 -43.0 -33.0 
  vertex -28.50005 -43.0 -33.0 
 endloop 
endfacet 
facet normal 0.0 -1.0 0.0 
 outer loop 
  vertex -30.50005 -43.0 -33.0 
  vertex -28.50005 -43.0 -9.0 
  vertex -30.50005 -43.0 3.0 
 endloop 
endfacet 
facet normal 0.0 -1.0 0.0 
 outer loop 
  vertex -30.50005 -43.0 3.0 
  vertex -28.50005 -43.0 -9.0 
  vertex 30.50005 -43.0 3.0 
 endloop 
endfacet 
facet normal 0.0 -0.0 1.0 
 outer loop 
  vertex 30.50005 -43.0 3.0 
  vertex -30.50005 41.0 3.0 
  vertex -30.50005 -43.0 3.0 
 endloop 
endfacet 
facet normal -0.0 -0.0 1.0 
 outer loop 
  vertex -30.50005 41.0 3.0 
  vertex 30.50005 -43.0 3.0 
  vertex 30.50005 41.0 3.0 
 endloop 
endfacet 
facet normal -1.0 -0.0 0.0 
 outer loop 
  vertex -30.50005 43.0 33.0 
  vertex -30.50005 41.0 3.0 
  vertex -30.50005 41.0 33.0 
 endloop 
endfacet 
facet normal -1.0 0.0 0.0 
 outer loop 
  vertex -30.50005 41.0 3.0 
  vertex -30.50005 43.0 33.0 
  vertex -30.50005 41.0 -9.0 
 endloop 
endfacet 
facet normal -1.0 0.0 0.0 
 outer loop 
  vertex -30.50005 41.0 -9.0 
  vertex -30.50005 43.0 33.0 
  vertex -30.50005 41.0 -33.0 
 endloop 
endfacet 
facet normal -1.0 -0.0 0.0 
 outer loop 
  vertex -30.50005 41.0 -33.0 
  vertex -30.50005 43.0 33.0 
  vertex -30.50005 43.0 -33.0 
 endloop 
endfacet 
facet normal -1.0 -0.0 0.0 
 outer loop 
  vertex -30.50005 -43.0 3.0 
  vertex -30.50005 -41.0 -9.0 
  vertex -30.50005 -43.0 -33.0 
 endloop 
endfacet 
facet normal -1.0 -0.0 0.0 
 outer loop 
  vertex -30.50005 -41.0 -9.0 
  vertex -30.50005 -43.0 3.0 
  vertex -30.50005 41.0 3.0 
 endloop 
endfacet 
facet normal -1.0 -0.0 0.0 
 outer loop 
  vertex -30.50005 -41.0 -9.0 
  vertex -30.50005 41.0 3.0 
  vertex -30.50005 41.0 -9.0 
 endloop 
endfacet 
facet normal -1.0 -0.0 0.0 
 outer loop 
  vertex -30.50005 -41.0 -33.0 
  vertex -30.50005 -43.0 -33.0 
  vertex -30.50005 -41.0 -9.0 
 endloop 
endfacet 
facet normal -0.0 -0.0 -1.0 
 outer loop 
  vertex -28.50005 -41.0 -33.0 
  vertex -30.50005 -43.0 -33.0 
  vertex -30.50005 -41.0 -33.0 
 endloop 
endfacet 
facet normal 0.0 -0.0 -1.0 
 outer loop 
  vertex -30.50005 -43.0 -33.0 
  vertex -28.50005 -41.0 -33.0 
  vertex -28.50005 -43.0 -33.0 
 endloop 
endfacet 
facet normal 1.0 -0.0 0.0 
 outer loop 
  vertex -28.50005 -41.0 -33.0 
  vertex -28.50005 -43.0 -9.0 
  vertex -28.50005 -43.0 -33.0 
 endloop 
endfacet 
facet normal 1.0 -0.0 0.0 
 outer loop 
  vertex -28.50005 -43.0 -9.0 
  vertex -28.50005 -41.0 -33.0 
  vertex -28.50005 -41.0 -9.0 
 endloop 
endfacet 
facet normal -0.0 -0.0 -1.0 
 outer loop 
  vertex 30.50005 41.0 -9.0 
  vertex 28.50005 -41.0 -9.0 
  vertex 28.50005 41.0 -9.0 
 endloop 
endfacet 
facet normal 0.0 -0.0 -1.0 
 outer loop 
  vertex 28.50005 -41.0 -9.0 
  vertex 30.50005 41.0 -9.0 
  vertex 30.50005 -41.0 -9.0 
 endloop 
endfacet 
facet normal -0.0 -0.0 -1.0 
 outer loop 
  vertex 28.50005 43.0 -9.0 
  vertex -28.50005 41.0 -9.0 
  vertex -28.50005 43.0 -9.0 
 endloop 
endfacet 
facet normal 0.0 -0.0 -1.0 
 outer loop 
  vertex -28.50005 41.0 -9.0 
  vertex 28.50005 43.0 -9.0 
  vertex -28.50005 -41.0 -9.0 
 endloop 
endfacet 
facet normal 0.0 -0.0 -1.0 
 outer loop 
  vertex -28.50005 -41.0 -9.0 
  vertex 28.50005 43.0 -9.0 
  vertex -28.50005 -43.0 -9.0 
 endloop 
endfacet 
facet normal 0.0 -0.0 -1.0 
 outer loop 
  vertex -28.50005 -43.0 -9.0 
  vertex 28.50005 43.0 -9.0 
  vertex 28.50005 -43.0 -9.0 
 endloop 
endfacet 
facet normal nan nan nan 
 outer loop 
  vertex 28.50005 -43.0 -9.0 
  vertex 28.50005 43.0 -9.0 
  vertex 28.50005 41.0 -9.0 
 endloop 
endfacet 
facet normal nan nan nan 
 outer loop 
  vertex 28.50005 -43.0 -9.0 
  vertex 28.50005 41.0 -9.0 
  vertex 28.50005 -41.0 -9.0 
 endloop 
endfacet 
facet normal -0.0 -0.0 -1.0 
 outer loop 
  vertex -28.50005 41.0 -9.0 
  vertex -30.50005 -41.0 -9.0 
  vertex -30.50005 41.0 -9.0 
 endloop 
endfacet 
facet normal 0.0 -0.0 -1.0 
 outer loop 
  vertex -30.50005 -41.0 -9.0 
  vertex -28.50005 41.0 -9.0 
  vertex -28.50005 -41.0 -9.0 
 endloop 
endfacet 
facet normal -1.0 -0.0 0.0 
 outer loop 
  vertex 28.50005 -41.0 -9.0 
  vertex 28.50005 -43.0 -33.0 
  vertex 28.50005 -43.0 -9.0 
 endloop 
endfacet 
facet normal -1.0 -0.0 0.0 
 outer loop 
  vertex 28.50005 -43.0 -33.0 
  vertex 28.50005 -41.0 -9.0 
  vertex 28.50005 -41.0 -33.0 
 endloop 
endfacet 
facet normal -0.0 -0.0 -1.0 
 outer loop 
  vertex 30.50005 -41.0 -33.0 
  vertex 28.50005 -43.0 -33.0 
  vertex 28.50005 -41.0 -33.0 
 endloop 
endfacet 
facet normal 0.0 -0.0 -1.0 
 outer loop 
  vertex 28.50005 -43.0 -33.0 
  vertex 30.50005 -41.0 -33.0 
  vertex 30.50005 -43.0 -33.0 
 endloop 
endfacet 
facet normal 1.0 -0.0 0.0 
 outer loop 
  vertex 30.50005 43.0 -33.0 
  vertex 30.50005 41.0 -9.0 
  vertex 30.50005 41.0 -33.0 
 endloop 
endfacet 
facet normal 1.0 -0.0 0.0 
 outer loop 
  vertex 30.50005 41.0 -9.0 
  vertex 30.50005 43.0 -33.0 
  vertex 30.50005 41.0 3.0 
 endloop 
endfacet 
facet normal 1.0 -0.0 0.0 
 outer loop 
  vertex 30.50005 41.0 3.0 
  vertex 30.50005 43.0 -33.0 
  vertex 30.50005 41.0 33.0 
 endloop 
endfacet 
facet normal 1.0 -0.0 0.0 
 outer loop 
  vertex 30.50005 41.0 33.0 
  vertex 30.50005 43.0 -33.0 
  vertex 30.50005 43.0 33.0 
 endloop 
endfacet 
facet normal 1.0 -0.0 0.0 
 outer loop 
  vertex 30.50005 -41.0 -33.0 
  vertex 30.50005 -43.0 3.0 
  vertex 30.50005 -43.0 -33.0 
 endloop 
endfacet 
facet normal 1.0 -0.0 0.0 
 outer loop 
  vertex 30.50005 -43.0 3.0 
  vertex 30.50005 -41.0 -33.0 
  vertex 30.50005 -41.0 -9.0 
 endloop 
endfacet 
facet normal 1.0 -0.0 0.0 
 outer loop 
  vertex 30.50005 -43.0 3.0 
  vertex 30.50005 -41.0 -9.0 
  vertex 30.50005 41.0 3.0 
 endloop 
endfacet 
facet normal 1.0 -0.0 0.0 
 outer loop 
  vertex 30.50005 41.0 3.0 
  vertex 30.50005 -41.0 -9.0 
  vertex 30.50005 41.0 -9.0 
 endloop 
endfacet 
facet normal 0.0 -1.0 -0.0 
 outer loop 
  vertex 30.50005 41.0 33.0 
  vertex -30.50005 41.0 3.0 
  vertex 30.50005 41.0 3.0 
 endloop 
endfacet 
facet normal 0.0 -1.0 0.0 
 outer loop 
  vertex -30.50005 41.0 3.0 
  vertex 30.50005 41.0 33.0 
  vertex -30.50005 41.0 33.0 
 endloop 
endfacet 
facet normal 0.0 -0.0 1.0 
 outer loop 
  vertex 30.50005 41.0 33.0 
  vertex -30.50005 43.0 33.0 
  vertex -30.50005 41.0 33.0 
 endloop 
endfacet 
facet normal -0.0 -0.0 1.0 
 outer loop 
  vertex -30.50005 43.0 33.0 
  vertex 30.50005 41.0 33.0 
  vertex 30.50005 43.0 33.0 
 endloop 
endfacet 
facet normal 0.0 1.0 0.0 
 outer loop 
  vertex -30.50005 43.0 33.0 
  vertex -28.50005 43.0 -33.0 
  vertex -30.50005 43.0 -33.0 
 endloop 
endfacet 
facet normal 0.0 1.0 -0.0 
 outer loop 
  vertex -28.50005 43.0 -33.0 
  vertex -30.50005 43.0 33.0 
  vertex -28.50005 43.0 -9.0 
 endloop 
endfacet 
facet normal 0.0 1.0 -0.0 
 outer loop 
  vertex -28.50005 43.0 -9.0 
  vertex -30.50005 43.0 33.0 
  vertex 28.50005 43.0 -9.0 
 endloop 
endfacet 
facet normal 0.0 1.0 0.0 
 outer loop 
  vertex 28.50005 43.0 -9.0 
  vertex 30.50005 43.0 -33.0 
  vertex 28.50005 43.0 -33.0 
 endloop 
endfacet 
facet normal 0.0 1.0 -0.0 
 outer loop 
  vertex 30.50005 43.0 -33.0 
  vertex 28.50005 43.0 -9.0 
  vertex 30.50005 43.0 33.0 
 endloop 
endfacet 
facet normal 0.0 1.0 0.0 
 outer loop 
  vertex 30.50005 43.0 33.0 
  vertex 28.50005 43.0 -9.0 
  vertex -30.50005 43.0 33.0 
 endloop 
endfacet 
facet normal -0.0 -0.0 -1.0 
 outer loop 
  vertex -28.50005 43.0 -33.0 
  vertex -30.50005 41.0 -33.0 
  vertex -30.50005 43.0 -33.0 
 endloop 
endfacet 
facet normal 0.0 -0.0 -1.0 
 outer loop 
  vertex -30.50005 41.0 -33.0 
  vertex -28.50005 43.0 -33.0 
  vertex -28.50005 41.0 -33.0 
 endloop 
endfacet 
facet normal 0.0 -1.0 -0.0 
 outer loop 
  vertex -28.50005 41.0 -9.0 
  vertex -30.50005 41.0 -33.0 
  vertex -28.50005 41.0 -33.0 
 endloop 
endfacet 
facet normal 0.0 -1.0 0.0 
 outer loop 
  vertex -30.50005 41.0 -33.0 
  vertex -28.50005 41.0 -9.0 
  vertex -30.50005 41.0 -9.0 
 endloop 
endfacet 
facet normal 0.0 1.0 0.0 
 outer loop 
  vertex -30.50005 -41.0 -9.0 
  vertex -28.50005 -41.0 -33.0 
  vertex -30.50005 -41.0 -33.0 
 endloop 
endfacet 
facet normal 0.0 1.0 -0.0 
 outer loop 
  vertex -28.50005 -41.0 -33.0 
  vertex -30.50005 -41.0 -9.0 
  vertex -28.50005 -41.0 -9.0 
 endloop 
endfacet 
facet normal 0.0 1.0 0.0 
 outer loop 
  vertex 28.50005 -41.0 -9.0 
  vertex 30.50005 -41.0 -33.0 
  vertex 28.50005 -41.0 -33.0 
 endloop 
endfacet 
facet normal 0.0 1.0 -0.0 
 outer loop 
  vertex 30.50005 -41.0 -33.0 
  vertex 28.50005 -41.0 -9.0 
  vertex 30.50005 -41.0 -9.0 
 endloop 
endfacet 
facet normal 1.0 -0.0 0.0 
 outer loop 
  vertex -28.50005 43.0 -33.0 
  vertex -28.50005 41.0 -9.0 
  vertex -28.50005 41.0 -33.0 
 endloop 
endfacet 
facet normal 1.0 -0.0 0.0 
 outer loop 
  vertex -28.50005 41.0 -9.0 
  vertex -28.50005 43.0 -33.0 
  vertex -28.50005 43.0 -9.0 
 endloop 
endfacet 
facet normal -1.0 -0.0 0.0 
 outer loop 
  vertex 28.50005 43.0 -9.0 
  vertex 28.50005 41.0 -33.0 
  vertex 28.50005 41.0 -9.0 
 endloop 
endfacet 
facet normal -1.0 -0.0 0.0 
 outer loop 
  vertex 28.50005 41.0 -33.0 
  vertex 28.50005 43.0 -9.0 
  vertex 28.50005 43.0 -33.0 
 endloop 
endfacet 
facet normal 0.0 -1.0 -0.0 
 outer loop 
  vertex 30.50005 41.0 -9.0 
  vertex 28.50005 41.0 -33.0 
  vertex 30.50005 41.0 -33.0 
 endloop 
endfacet 
facet normal 0.0 -1.0 0.0 
 outer loop 
  vertex 28.50005 41.0 -33.0 
  vertex 30.50005 41.0 -9.0 
  vertex 28.50005 41.0 -9.0 
 endloop 
endfacet 
facet normal -0.0 -0.0 -1.0 
 outer loop 
  vertex 30.50005 43.0 -33.0 
  vertex 28.50005 41.0 -33.0 
  vertex 28.50005 43.0 -33.0 
 endloop 
endfacet 
facet normal 0.0 -0.0 -1.0 
 outer loop 
  vertex 28.50005 41.0 -33.0 
  vertex 30.50005 43.0 -33.0 
  vertex 30.50005 41.0 -33.0 
 endloop 
endfacet 
 endsolid bed_0519 

