g bed_0519
v  30.50005 -43.        3.     
v  28.50005 -43.      -33.     
v  30.50005 -43.      -33.     
v  28.50005 -43.       -9.     
v -28.50005 -43.       -9.     
v -30.50005 -43.      -33.     
v -28.50005 -43.      -33.     
v -30.50005 -43.        3.     
v  30.50005 -43.        3.     
v -30.50005  41.        3.     
v -30.50005 -43.        3.     
v 30.50005 41.       3.     
v -30.50005  43.       33.     
v -30.50005  41.        3.     
v -30.50005  41.       33.     
v -30.50005  41.       -9.     
v -30.50005  41.      -33.     
v -30.50005  43.      -33.     
v -30.50005 -43.        3.     
v -30.50005 -41.       -9.     
v -30.50005 -43.      -33.     
v -30.50005 -41.      -33.     
v -28.50005 -41.      -33.     
v -30.50005 -43.      -33.     
v -30.50005 -41.      -33.     
v -28.50005 -43.      -33.     
v -28.50005 -41.      -33.     
v -28.50005 -43.       -9.     
v -28.50005 -43.      -33.     
v -28.50005 -41.       -9.     
v 30.50005 41.      -9.     
v  28.50005 -41.       -9.     
v 28.50005 41.      -9.     
v  30.50005 -41.       -9.     
v 28.50005 43.      -9.     
v -28.50005  41.       -9.     
v -28.50005  43.       -9.     
v -28.50005 -41.       -9.     
v -28.50005 -43.       -9.     
v  28.50005 -43.       -9.     
v -30.50005 -41.       -9.     
v -30.50005  41.       -9.     
v  28.50005 -41.       -9.     
v  28.50005 -43.      -33.     
v  28.50005 -43.       -9.     
v  28.50005 -41.      -33.     
v  30.50005 -41.      -33.     
v  28.50005 -43.      -33.     
v  28.50005 -41.      -33.     
v  30.50005 -43.      -33.     
v  30.50005  43.      -33.     
v 30.50005 41.      -9.     
v  30.50005  41.      -33.     
v 30.50005 41.       3.     
v 30.50005 41.      33.     
v 30.50005 43.      33.     
v  30.50005 -41.      -33.     
v  30.50005 -43.        3.     
v  30.50005 -43.      -33.     
v  30.50005 -41.       -9.     
v 30.50005 41.      33.     
v -30.50005  41.        3.     
v 30.50005 41.       3.     
v -30.50005  41.       33.     
v 30.50005 41.      33.     
v -30.50005  43.       33.     
v -30.50005  41.       33.     
v 30.50005 43.      33.     
v -30.50005  43.       33.     
v -28.50005  43.      -33.     
v -30.50005  43.      -33.     
v -28.50005  43.       -9.     
v 28.50005 43.      -9.     
v  30.50005  43.      -33.     
v  28.50005  43.      -33.     
v 30.50005 43.      33.     
v -28.50005  43.      -33.     
v -30.50005  41.      -33.     
v -30.50005  43.      -33.     
v -28.50005  41.      -33.     
v -28.50005  41.       -9.     
v -30.50005  41.      -33.     
v -28.50005  41.      -33.     
v -30.50005  41.       -9.     
v -30.50005 -41.       -9.     
v -28.50005 -41.      -33.     
v -30.50005 -41.      -33.     
v -28.50005 -41.       -9.     
v  28.50005 -41.       -9.     
v  30.50005 -41.      -33.     
v  28.50005 -41.      -33.     
v  30.50005 -41.       -9.     
v -28.50005  43.      -33.     
v -28.50005  41.       -9.     
v -28.50005  41.      -33.     
v -28.50005  43.       -9.     
v 28.50005 43.      -9.     
v  28.50005  41.      -33.     
v 28.50005 41.      -9.     
v  28.50005  43.      -33.     
v 30.50005 41.      -9.     
v  28.50005  41.      -33.     
v  30.50005  41.      -33.     
v 28.50005 41.      -9.     
v  30.50005  43.      -33.     
v  28.50005  41.      -33.     
v  28.50005  43.      -33.     
v  30.50005  41.      -33.     

vn   0. -72.  -0.
vn   0. -48.   0.
vn    0.     -684.0012    0.    
vn   0. -48.  -0.
vn   0. -72.   0.
vn    0.     -732.0012    0.    
vn    0.        0.     5124.0084
vn   -0.        0.     5124.0084
vn -60.  -0.   0.
vn -24.   0.   0.
vn -48.   0.   0.
vn -132.    0.    0.
vn -72.   0.   0.
vn -1008.     0.     0.
vn -984.    0.    0.
vn -48.   0.   0.
vn -0.  0. -4.
vn  0.  0. -4.
vn 48.  0.  0.
vn 48. -0.  0.
vn   -0.    0. -164.
vn    0.    0. -164.
vn   -0.        0.     -114.0002
vn     0.         0.     -4674.0082
vn    0.        0.     -114.0002
vn     0.         0.     -4902.0086
vn 0. 0. 0.
vn 0. 0. 0.
vn   -0.    0. -164.
vn    0.    0. -164.
vn -48.  -0.   0.
vn -48.   0.   0.
vn -0.  0. -4.
vn  0.  0. -4.
vn 48.  0.  0.
vn 24. -0.  0.
vn 60. -0.  0.
vn 132.  -0.   0.
vn 72.  0.  0.
vn 48.  0.  0.
vn 1008.   -0.    0.
vn 984.   0.   0.
vn     0.    -1830.003    -0.   
vn     0.    -1830.003     0.   
vn   0.       0.     122.0002
vn  -0.       0.     122.0002
vn   0. 132.   0.
vn  0. 48. -0.
vn    0.     2394.0042   -0.    
vn  0. 48.  0.
vn   0. 132.  -0.
vn    0.     2562.0042    0.    
vn -0.  0. -4.
vn  0.  0. -4.
vn   0. -48.  -0.
vn   0. -48.   0.
vn  0. 48.  0.
vn  0. 48. -0.
vn  0. 48.  0.
vn  0. 48. -0.
vn 48.  0.  0.
vn 48. -0.  0.
vn -48.  -0.   0.
vn -48.   0.   0.
vn   0. -48.  -0.
vn   0. -48.   0.
vn -0.  0. -4.
vn  0.  0. -4.

f 1//1 2//1 3//1
f 2//2 1//2 4//2
f 4//3 1//3 5//3
f 5//4 6//4 7//4
f 6//5 5//5 8//5
f 8//6 5//6 1//6
f 9//7 10//7 11//7
f 10//8 9//8 12//8
f 13//9 14//9 15//9
f 14//10 13//10 16//10
f 16//11 13//11 17//11
f 17//12 13//12 18//12
f 19//13 20//13 21//13
f 20//14 19//14 14//14
f 20//15 14//15 16//15
f 22//16 21//16 20//16
f 23//17 24//17 25//17
f 24//18 23//18 26//18
f 27//19 28//19 29//19
f 28//20 27//20 30//20
f 31//21 32//21 33//21
f 32//22 31//22 34//22
f 35//23 36//23 37//23
f 36//24 35//24 38//24
f 38//25 35//25 39//25
f 39//26 35//26 40//26
f 40//27 35//27 33//27
f 40//28 33//28 32//28
f 36//29 41//29 42//29
f 41//30 36//30 38//30
f 43//31 44//31 45//31
f 44//32 43//32 46//32
f 47//33 48//33 49//33
f 48//34 47//34 50//34
f 51//35 52//35 53//35
f 52//36 51//36 54//36
f 54//37 51//37 55//37
f 55//38 51//38 56//38
f 57//39 58//39 59//39
f 58//40 57//40 60//40
f 58//41 60//41 54//41
f 54//42 60//42 52//42
f 61//43 62//43 63//43
f 62//44 61//44 64//44
f 65//45 66//45 67//45
f 66//46 65//46 68//46
f 69//47 70//47 71//47
f 70//48 69//48 72//48
f 72//49 69//49 73//49
f 73//50 74//50 75//50
f 74//51 73//51 76//51
f 76//52 73//52 69//52
f 77//53 78//53 79//53
f 78//54 77//54 80//54
f 81//55 82//55 83//55
f 82//56 81//56 84//56
f 85//57 86//57 87//57
f 86//58 85//58 88//58
f 89//59 90//59 91//59
f 90//60 89//60 92//60
f 93//61 94//61 95//61
f 94//62 93//62 96//62
f 97//63 98//63 99//63
f 98//64 97//64 100//64
f 101//65 102//65 103//65
f 102//66 101//66 104//66
f 105//67 106//67 107//67
f 106//68 105//68 108//68
